<svg width="196" height="116" viewBox="0 0 196 116" fill="none" xmlns="http://www.w3.org/2000/svg">
<g id="BODY 1">
<g id="ARM R 1">
<path id="Vector" fill-rule="evenodd" clip-rule="evenodd" d="M25.2195 127.911C26.5609 134.26 20.3008 199.992 19.9431 203.033C22.1788 207.057 28.2601 210.187 32.0162 213.764C33.8048 215.642 37.3821 219.13 35.0569 220.024C30.4065 221.813 25.6666 216.268 25.6666 216.268C25.6666 216.268 24.504 215.374 24.0569 218.146C23.5203 221.187 31.7479 230.667 31.5691 233.081C31.3008 236.837 16.9024 246.138 11.626 239.163C8.22763 234.959 5.99186 229.862 5.27641 224.496C4.82926 220.203 5.72356 210.545 6.17072 206.073C6.61787 201.602 0.804874 135.423 0.178859 126.39V125.496H0L0.178859 124.87C0.178859 123.886 0.536583 122.903 0.983737 122.008L10.8211 87.2197L40.2438 94.6425C40.2438 94.6425 30.0487 125.228 25.3089 127.911H25.2195Z" fill="#F5C7A6"/>
<g id="Group 1 copy 4 1">
<path id="Vector_2" fill-rule="evenodd" clip-rule="evenodd" d="M29.6923 115.748L33.7167 117.358L41.3183 89.6343L29.6923 115.748Z" fill="#7F0F27"/>
<path id="Rectangle 1177 copy 1" fill-rule="evenodd" clip-rule="evenodd" d="M29.692 115.748L41.318 89.7234L55.6269 37.8536C53.8383 37.317 52.0497 36.8699 50.261 36.6016L16.9928 110.829L29.692 115.748Z" fill="#1F233E"/>
<path id="Rectangle 1177 copy 2 1" fill-rule="evenodd" clip-rule="evenodd" d="M16.9929 110.74L50.3505 36.6017C45.3424 35.7074 40.2449 35.7969 35.3262 37.0489L4.38312 105.821L16.9929 110.74Z" fill="#F5F5F5"/>
<path id="Rectangle 1177 copy 11 1" fill-rule="evenodd" clip-rule="evenodd" d="M22.2702 49.6581C15.5629 70.2271 3.31091 105.373 3.31091 105.373L4.38408 105.821L35.3271 37.0483C29.067 38.6581 24.0588 43.4874 22.2702 49.7475V49.6581V49.6581Z" fill="#7F0F27"/>
<path id="Rectangle 1177 copy 5 1" opacity="0.38" fill-rule="evenodd" clip-rule="evenodd" d="M52.7667 48.3169L55.7179 37.8535C55.7179 37.8535 41.5879 33.2926 31.3033 38.6584L52.7667 48.3169Z" fill="#F5F5F5"/>
<path id="Rectangle 1177 copy 7 1" opacity="0.38" fill-rule="evenodd" clip-rule="evenodd" d="M39.1729 84.1789L39.0834 69.87L18.5143 60.748L14.6688 73.0001L39.1729 84.1789Z" fill="#F5F5F5"/>
<path id="Rectangle 1177 copy 7 2 1" opacity="0.2" fill-rule="evenodd" clip-rule="evenodd" d="M46.0594 72.8209L49.6367 59.764L22.9863 47.7803L22.2708 49.6583L18.6936 60.5689L46.0594 72.8209Z" fill="black"/>
<path id="Rectangle 1177 copy 8 1" opacity="0.38" fill-rule="evenodd" clip-rule="evenodd" d="M35.0588 112.081L5.54668 98.9346L3.31091 105.463L33.7174 117.447L35.0588 112.081Z" fill="#F5F5F5"/>
<path id="Rectangle 1177 copy 8 2 1" opacity="0.2" fill-rule="evenodd" clip-rule="evenodd" d="M38.7257 98.9351L10.0185 86.1465L5.54694 98.9351L35.0591 112.171L38.7257 98.9351Z" fill="black"/>
</g>
</g>
<g id="ARM R copy 1">
<path id="Vector_3" fill-rule="evenodd" clip-rule="evenodd" d="M185.033 87.3086L155.521 94.6419C155.521 94.6419 165.806 125.317 170.546 127.91C173.586 129.43 195.765 125.406 195.765 125.406L185.033 87.3086Z" fill="#F5C7A6"/>
<g id="Group 1 copy 3 1">
<path id="Vector_4" fill-rule="evenodd" clip-rule="evenodd" d="M165.447 115.748L161.422 117.357L153.731 89.6338L165.447 115.748Z" fill="#7F0F27"/>
<path id="Rectangle 1177 copy 2 1_2" fill-rule="evenodd" clip-rule="evenodd" d="M165.447 115.748L153.821 89.7234L139.422 37.8536C141.211 37.317 143 36.8699 144.788 36.6016L178.057 110.829L165.447 115.748Z" fill="#1F233E"/>
<path id="Rectangle 1177 copy 2 2 1" fill-rule="evenodd" clip-rule="evenodd" d="M178.055 110.739L144.787 36.6013C148.722 35.9753 154.446 35.5282 159.811 37.0485L190.665 105.821L178.055 110.739Z" fill="#F5F5F5"/>
<path id="Rectangle 1177 copy 11 2 1" fill-rule="evenodd" clip-rule="evenodd" d="M172.782 49.6581C179.578 70.2271 191.741 105.373 191.741 105.373L190.668 105.821L159.814 37.0483C166.074 38.6581 170.993 43.4874 172.782 49.7475V49.6581Z" fill="#7F0F27"/>
<path id="Rectangle 1177 copy 5 2 1" opacity="0.38" fill-rule="evenodd" clip-rule="evenodd" d="M142.284 48.3189L139.422 37.8555C139.422 37.8555 153.463 33.2945 163.747 38.6604L142.284 48.3189Z" fill="#F5F5F5"/>
<path id="Rectangle 1177 copy 7 3 1" opacity="0.38" fill-rule="evenodd" clip-rule="evenodd" d="M155.877 84.1784L156.056 69.8695L176.625 60.7476L180.471 72.9996L155.877 84.1784Z" fill="#F5F5F5"/>
<path id="Rectangle 1177 copy 7 4 1" opacity="0.2" fill-rule="evenodd" clip-rule="evenodd" d="M149.081 72.8209L145.504 59.764L172.065 47.7803L172.78 49.6583L176.357 60.5689L149.081 72.8209Z" fill="black"/>
<path id="Rectangle 1177 copy 8 3 1" opacity="0.38" fill-rule="evenodd" clip-rule="evenodd" d="M159.992 112.081L189.504 98.8452L191.74 105.374L161.333 117.357L159.992 112.081Z" fill="#F5F5F5"/>
<path id="Rectangle 1177 copy 8 4 1" opacity="0.2" fill-rule="evenodd" clip-rule="evenodd" d="M156.325 98.9347L185.121 86.0566C186.552 90.3493 188.073 94.5526 189.503 98.8452L159.991 112.081L156.325 98.9347Z" fill="black"/>
</g>
</g>
<path id="Vector_5" fill-rule="evenodd" clip-rule="evenodd" d="M80.6672 28.2847C85.2281 27.7481 89.7891 27.3904 94.1712 27.1221V211.349H80.6672V28.2847Z" fill="#7F0F27"/>
<path id="Rectangle 1177 copy 3 1" fill-rule="evenodd" clip-rule="evenodd" d="M67.0715 30.2521C71.543 29.5367 76.0145 28.8213 80.6649 28.2847V211.439H67.0715V30.2521Z" fill="#1F233E"/>
<path id="Rectangle 1177 copy 2 3 1" fill-rule="evenodd" clip-rule="evenodd" d="M53.5674 32.756L67.0714 30.252V211.439H53.5674C53.5674 211.439 53.5674 32.756 53.5674 32.756Z" fill="#F5F5F5"/>
<path id="Rectangle 1177 copy 11 3 1" fill-rule="evenodd" clip-rule="evenodd" d="M39.9735 35.797L40.4207 35.7076H40.5101L40.9572 35.5287H41.0467L41.5833 35.4393C44.2662 34.7238 48.4694 33.8295 53.567 32.7563V211.439H44.5345L40.0629 84.0002V35.7076L39.9735 35.797Z" fill="#7F0F27"/>
<path id="Rectangle 1177 copy 11 4 1" fill-rule="evenodd" clip-rule="evenodd" d="M39.9754 35.7969V84.0001L38.2762 36.244L39.9754 35.7969Z" fill="#1F233E"/>
<path id="Rectangle 1177 copy 3 1_2" fill-rule="evenodd" clip-rule="evenodd" d="M121.269 28.8213C126.009 29.5367 130.66 30.3416 134.863 31.1465V211.439H121.269V28.8213Z" fill="#7F0F27"/>
<path id="Rectangle 1177 copy 3 2 1" fill-rule="evenodd" clip-rule="evenodd" d="M107.762 27.3901C112.233 27.6584 116.794 28.195 121.266 28.821V211.439H107.762V27.3901Z" fill="#1F233E"/>
<path id="Rectangle 1177 copy 3 3 1" fill-rule="evenodd" clip-rule="evenodd" d="M94.1709 27.1221C98.7319 26.9433 103.203 27.0327 107.764 27.3904V211.439H94.0815V27.2116L94.1709 27.1221Z" fill="#F5F5F5"/>
<path id="Rectangle 1177 copy 4 1" fill-rule="evenodd" clip-rule="evenodd" d="M147.739 33.9185C150.69 34.6339 153.641 35.4388 156.592 36.2436L153.999 211.439H147.739V33.9185Z" fill="#1F233E"/>
<path id="Rectangle 1177 copy 4 2 1" fill-rule="evenodd" clip-rule="evenodd" d="M134.145 30.9673L147.738 33.9185V211.439H134.145V30.9673Z" fill="#F5F5F5"/>
<path id="Rectangle 1177 copy 5 3 1" opacity="0.38" fill-rule="evenodd" clip-rule="evenodd" d="M38.9012 52.6987H156.324L156.145 66.1133H39.3484L38.9012 52.6987Z" fill="#F5F5F5"/>
<path id="Rectangle 1177 copy 6 1" opacity="0.2" fill-rule="evenodd" clip-rule="evenodd" d="M38.4541 39.2847H156.503L156.324 52.6993H38.9013L38.4541 39.2847Z" fill="black"/>
<path id="Rectangle 1177 copy 7 5 1" opacity="0.38" fill-rule="evenodd" clip-rule="evenodd" d="M40.2447 91.2437H155.789L155.61 104.658H40.7813L40.2447 91.2437Z" fill="#F5F5F5"/>
<path id="Rectangle 1177 copy 7 6 1" opacity="0.2" fill-rule="evenodd" clip-rule="evenodd" d="M39.7975 77.8291H156.057L155.789 91.2437H40.2446L39.7975 77.8291Z" fill="black"/>
<path id="Vector_6" opacity="0.2" fill-rule="evenodd" clip-rule="evenodd" d="M93.6324 27.3902H108.031C131.283 29 156.592 36.2439 156.592 36.2439L154.088 207.951H93.6324V27.3008V27.3902V27.3902Z" fill="#6A4988"/>
<path id="Ellipse 1180 copy 4 1" fill-rule="evenodd" clip-rule="evenodd" d="M97.6565 136.764C96.3151 136.675 95.2419 135.601 95.3313 134.26C95.4208 132.918 96.4939 131.845 97.8354 131.935C99.1768 132.024 100.161 133.008 100.161 134.349C100.161 135.691 99.0874 136.764 97.746 136.764H97.6565V136.764ZM97.6565 102.333C96.3151 102.244 95.2419 101.171 95.3313 99.8291C95.4208 98.4876 96.4939 97.4144 97.8354 97.5038C99.1768 97.5933 100.161 98.577 100.161 99.9185C100.161 101.26 99.0874 102.333 97.746 102.333H97.6565V102.333ZM97.6565 67.9917C96.3151 67.9023 95.2419 66.8291 95.3313 65.4876C95.4208 64.1462 96.4939 63.073 97.8354 63.1624C99.1768 63.2519 100.161 64.2356 100.161 65.5771C100.161 66.9185 99.0874 67.9917 97.746 67.9917H97.6565V67.9917ZM97.6565 165.918C98.998 165.829 100.071 166.902 100.161 168.244C100.25 169.585 99.1768 170.658 97.8354 170.748C96.4939 170.837 95.4208 169.764 95.3313 168.422V168.333C95.3313 166.992 96.4045 165.918 97.6565 165.918C97.746 165.918 97.746 165.918 97.6565 165.918Z" fill="white"/>
<path id="Vector_7" fill-rule="evenodd" clip-rule="evenodd" d="M75.032 3.60182C79.5035 23.4555 71.2759 43.5774 71.2759 43.5774L98.1051 59.7643L125.829 43.2197C125.829 43.2197 116.26 27.8376 120.463 0.382324C120.194 1.72379 74.3165 1.27662 75.032 3.60182Z" fill="#F5C7A6"/>
<path id="Vector_8" opacity="0.1" fill-rule="evenodd" clip-rule="evenodd" d="M119.657 19.1628C116.258 23.0083 111.966 25.8701 107.136 27.6587C101.055 29.4473 91.6647 28.9107 86.5672 27.4798C83.8843 26.7644 80.0388 23.0977 76.2827 18.7156C76.551 13.6181 76.1038 8.52052 75.0306 3.5124C74.3152 1.27663 120.193 1.72379 120.551 0.382324C119.567 6.55305 119.209 12.9026 119.657 19.1628Z" fill="black"/>
<path id="Vector_9" fill-rule="evenodd" clip-rule="evenodd" d="M89.4297 40.6257L97.4785 59.8533C97.4785 59.8533 67.7875 46.1704 69.7549 41.3411C71.7224 36.5119 89.4297 40.6257 89.4297 40.6257Z" fill="#7F0F27"/>
<path id="Shape 168 copy 1" fill-rule="evenodd" clip-rule="evenodd" d="M105.708 40.6257L97.5693 59.8533C97.5693 59.8533 127.26 46.1704 125.293 41.3411C123.325 36.5119 105.618 40.6257 105.618 40.6257H105.708Z" fill="#7F0F27"/>
<g id="Group 1 copy 1">
<path id="Vector_10" fill-rule="evenodd" clip-rule="evenodd" d="M69.8451 52.9679C67.5199 50.1955 65.8208 47.0655 64.5687 43.6671L76.0159 26.1387C76.1947 28.4639 77.9833 32.0411 81.2923 35.2606L69.8451 52.9679Z" fill="#7F0F27"/>
<path id="Rectangle 1177 copy 4 1_2" fill-rule="evenodd" clip-rule="evenodd" d="M64.5678 43.6665C63.1369 39.4633 62.6003 35.1706 64.836 32.756C66.6247 30.7885 68.8604 29.3576 69.2181 28.0161C69.2181 18.9836 76.1043 19.5202 76.1043 19.5202C75.9255 21.3983 75.9255 23.2763 76.0149 25.1544C76.0149 25.5121 76.0149 25.7804 76.0149 26.1381L64.5678 43.6665Z" fill="#1F233E"/>
<path id="Rectangle 1177 copy 3 4 1" fill-rule="evenodd" clip-rule="evenodd" d="M89.3412 40.5362L89.073 40.9833C87.016 42.5037 78.073 48.5849 71.0974 54.2191C70.6502 53.8614 70.2031 53.4142 69.8453 52.9671L81.2925 35.2598C83.6177 37.4955 86.39 39.2841 89.3412 40.5362Z" fill="#F5F5F5"/>
<path id="Rectangle 1177 copy 7 7 1" opacity="0.38" fill-rule="evenodd" clip-rule="evenodd" d="M71.0967 54.2194C67.2512 50.3739 64.6577 45.4552 63.5845 40.0894L81.2918 46.5284C77.804 49.0324 74.4057 51.5365 71.0967 54.2194Z" fill="#F5F5F5"/>
<path id="Rectangle 1177 copy 7 8 1" opacity="0.2" fill-rule="evenodd" clip-rule="evenodd" d="M89.6093 40.6257L81.2923 46.5282L63.585 40.0892C63.0484 37.1379 63.3167 34.455 64.837 32.7558C66.2679 31.1461 68.0565 29.894 68.8614 28.7314L78.6988 32.1298C81.4711 35.8859 85.2272 38.8371 89.5199 40.6257H89.6093Z" fill="black"/>
</g>
<g id="Group 1 copy 2 1">
<path id="Vector_11" fill-rule="evenodd" clip-rule="evenodd" d="M120.909 51.1784L113.308 45.6337L126.365 25.4224C126.543 26.3167 126.633 27.1215 126.633 28.0159C126.991 29.3573 129.316 30.6988 130.925 32.7557C131.283 33.2028 131.641 33.65 131.82 34.1866L120.909 51.1784Z" fill="#7F0F27"/>
<path id="Rectangle 1177 copy 5 1_2" fill-rule="evenodd" clip-rule="evenodd" d="M113.307 45.6343L106.242 40.6262C115.811 36.6912 120.283 28.6424 119.836 25.1546C119.925 23.2766 119.836 21.3985 119.657 19.5205C119.657 19.5205 125.112 19.0733 126.364 25.4229L113.307 45.6343Z" fill="#1F233E"/>
<path id="Rectangle 1177 copy 7 9 1" opacity="0.38" fill-rule="evenodd" clip-rule="evenodd" d="M124.754 54.2196C116.706 47.7806 106.242 40.805 106.242 40.6261C107.494 40.0895 108.746 39.4635 109.909 38.748L130.21 46.1708C128.958 49.2114 127.169 51.9838 124.754 54.2196Z" fill="#F5F5F5"/>
<path id="Rectangle 1177 copy 7 10 1" opacity="0.2" fill-rule="evenodd" clip-rule="evenodd" d="M130.21 46.1708L109.91 38.748C113.934 36.5123 117.154 33.0245 119.121 28.9106L131.194 33.1139C133.519 36.0651 132.357 41.5204 130.21 46.1708Z" fill="black"/>
</g>
<path id="Ellipse 1180 copy 1" fill-rule="evenodd" clip-rule="evenodd" d="M123.771 49.1222C122.966 49.1222 122.25 48.4068 122.25 47.6019C122.25 46.797 122.966 46.0815 123.771 46.0815C124.575 46.0815 125.291 46.797 125.291 47.6019V47.6913C125.201 48.4962 124.575 49.1222 123.771 49.1222ZM71.6324 49.1222C70.8276 49.1222 70.1121 48.4068 70.1121 47.6019C70.1121 46.797 70.8276 46.0815 71.6324 46.0815C72.4373 46.0815 73.1528 46.797 73.1528 47.6019V47.6913C73.0633 48.4962 72.4373 49.1222 71.6324 49.1222Z" fill="white"/>
<g id="ARM 2 1">
<g id="USA FLAG 1">
<path id="Vector_12" opacity="0.1" fill-rule="evenodd" clip-rule="evenodd" d="M65.3723 102.333L121.356 73.2681L140.136 109.398L84.0633 138.463L65.3723 102.333ZM64.9251 107.699L66.8926 106.268L107.673 183.178L105.706 184.52L64.9251 107.699Z" fill="black"/>
<path id="Vector_13" fill-rule="evenodd" clip-rule="evenodd" d="M62.6891 103.585L64.2094 102.691L106.6 183.268L105.079 184.162L62.6891 103.585Z" fill="#EEBFA4"/>
<path id="Vector_14" fill-rule="evenodd" clip-rule="evenodd" d="M64.1187 102.691L119.745 73.3574L137.989 108.772L82.452 138.105L64.1187 102.691Z" fill="white"/>
<path id="Vector_15" fill-rule="evenodd" clip-rule="evenodd" d="M82.4524 138.105L81.2898 135.78L136.737 106.268L137.989 108.772L82.4524 138.105ZM79.7694 132.918L78.3385 130.235L133.786 100.723L135.217 103.406L79.7694 132.918ZM76.8182 127.284L75.4768 124.601L130.924 95.0891L132.355 97.772L76.8182 127.284ZM74.1353 121.739L72.7044 119.057L128.151 89.5444L129.493 92.2273L74.1353 121.739ZM71.2735 116.374L69.8426 113.691L125.29 84.1786L126.721 86.772L71.2735 116.374ZM68.3223 110.739L66.9808 108.057L122.428 78.5444L123.769 81.2273L68.3223 110.739ZM65.55 105.374L64.2085 102.691L77.9808 95.3574L119.745 73.3574L120.997 75.7721L65.55 105.374Z" fill="#DD1F26"/>
<path id="Vector_16" fill-rule="evenodd" clip-rule="evenodd" d="M70.6472 115.211L64.1187 102.691L89.8748 89.0972L99.9805 108.146L74.135 121.918L70.6472 115.211Z" fill="#0B61A5"/>
<path id="Vector_17" fill-rule="evenodd" clip-rule="evenodd" d="M67.1607 103.048L67.6079 103.317L68.2339 103.138L68.055 103.764L68.4128 104.3H67.7867L67.429 104.748L67.2502 104.211L66.6241 104.032L67.1607 103.674V103.048ZM71.2745 100.813L71.8111 101.17L72.3477 100.991L72.2583 101.528L72.5266 102.065H71.99L71.6323 102.601L71.364 101.975L70.8274 101.796L71.2745 101.439V100.813ZM75.3884 98.5769L75.9249 98.9346L76.551 98.7557L76.3721 99.2923L76.7298 99.8289H76.1038L75.7461 100.365L75.5672 99.8289L74.9412 99.5606L75.3884 99.2029V98.5769ZM79.5916 96.3411L80.1282 96.6988L80.6648 96.52L80.4859 97.146L80.8436 97.5931H80.2176L79.8599 98.1297L79.681 97.5931L79.055 97.4143L79.5916 96.9671V96.3411ZM83.7054 94.1948L84.242 94.463L84.868 94.2842L84.6892 94.9102L85.0469 95.4468H84.4209L84.0631 95.8939L83.7948 95.3574L83.2583 95.1785L83.7054 94.7313V94.1948ZM87.9087 91.959L88.3558 92.3167L88.9818 92.1378L88.803 92.6744L89.1607 93.211H88.5347L88.1769 93.7476L87.9981 93.1216L87.3721 92.9427L87.9087 92.585V91.959ZM70.2908 103.585L70.738 103.943L71.364 103.764L71.1851 104.39L71.5428 104.926H70.9168L70.5591 105.374L70.3802 104.837L69.7542 104.658L70.2014 104.211L70.2908 103.585ZM74.4046 101.439L74.9412 101.796L75.4778 101.618L75.2989 102.154L75.6566 102.691H75.1201L74.6729 103.227L74.4941 102.601L73.9575 102.422L74.4046 102.065V101.439V101.439ZM78.5184 99.2029L79.055 99.5606L79.681 99.3817L79.5022 99.9183L79.8599 100.455H79.2339L78.8762 100.991L78.6079 100.455L78.0713 100.187L78.5184 99.8289V99.2029ZM82.7217 96.9671L83.2583 97.3248L83.7948 97.146L83.616 97.772L83.9737 98.2191H83.3477L82.99 98.7557L82.8111 98.2191L82.1851 98.0403L82.7217 97.5931V96.9671ZM86.8355 94.8208L87.3721 95.0891L87.9087 94.9102L87.8192 95.5362L88.1769 96.0728H87.5509L87.1932 96.52L86.9249 95.9834L86.3883 95.8045L86.8355 95.4468V94.8208ZM68.9493 106.626L69.5754 106.894L70.1119 106.715L69.9331 107.341L70.2908 107.878H69.7542L69.3071 108.325L69.1282 107.788L68.5022 107.609L69.0388 107.252V106.626H68.9493ZM73.1526 104.39L73.6892 104.748L74.3152 104.569L74.1363 105.105L74.4941 105.642H73.868L73.5103 106.178L73.242 105.552L72.7054 105.374L73.1526 105.016V104.39ZM77.3558 102.154L77.803 102.512L78.429 102.333L78.2501 102.959L78.6079 103.406H77.9818L77.6241 103.943L77.4453 103.406L76.8192 103.138L77.3558 102.78V102.154ZM81.4696 99.9183L82.0062 100.276L82.5428 100.097L82.4534 100.723L82.8111 101.17H82.1851L81.8274 101.707L81.5591 101.17L81.0225 100.991L81.4696 100.544V99.9183ZM85.6729 97.772L86.1201 98.0403L86.7461 97.8614L86.5672 98.4874L86.9249 99.024H86.2989L85.9412 99.4712L85.7623 98.9346L85.1363 98.7557L85.5835 98.398L85.6729 97.772ZM89.7867 95.5362L90.3233 95.8939L90.8599 95.7151L90.681 96.2517L91.0387 96.7883H90.5022L90.055 97.3248L89.8761 96.6988L89.3396 96.52L89.7867 96.1622V95.5362V95.5362ZM72.1688 107.162L72.7054 107.52L73.242 107.341L73.0632 107.967L73.4209 108.504H72.8843L72.4371 109.04L72.2583 108.414L71.7217 108.235L72.1688 107.878V107.252V107.162ZM76.2827 105.016L76.8192 105.374L77.4453 105.195L77.2664 105.731L77.6241 106.268H76.9981L76.6404 106.804L76.3721 106.178L75.8355 106L76.2827 105.642V105.016ZM80.4859 102.78L80.9331 103.138L81.5591 102.959L81.3802 103.585L81.7379 104.032H81.1119L80.7542 104.569L80.5753 104.032L79.9493 103.764L80.4859 103.406V102.78ZM84.5997 100.634L85.1363 100.902L85.6729 100.723L85.5835 101.349L85.9412 101.796H85.3152L84.9574 102.333L84.6892 101.796L84.1526 101.618L84.5997 101.17V100.634ZM88.803 98.398L89.2501 98.7557L89.8761 98.5769L89.6973 99.1134L90.055 99.65H89.429L89.0713 100.187L88.8924 99.5606L88.2664 99.3817L88.803 99.024V98.398ZM70.9168 110.203L71.4534 110.561L72.0794 110.382L71.9006 110.918L72.2583 111.455H71.6323L71.2745 111.991L71.0062 111.365L70.4697 111.187L70.9168 110.829V110.203ZM75.1201 107.967L75.6566 108.325L76.1932 108.146L76.0144 108.683L76.3721 109.219H75.7461L75.3884 109.756L75.2095 109.13L74.5835 108.951L75.1201 108.593V107.967ZM79.2339 105.731L79.7705 106.089L80.3071 105.91L80.2176 106.536L80.5753 106.983H79.9493L79.5916 107.52L79.3233 106.983L78.7867 106.715L79.2339 106.357V105.731ZM83.4371 103.585L83.8843 103.853L84.5103 103.674L84.3314 104.3L84.6892 104.837H84.0631L83.7054 105.284L83.5266 104.748L82.9005 104.569L83.4371 104.122V103.585ZM87.5509 101.349L88.0875 101.707L88.6241 101.528L88.5347 102.065L88.8924 102.601H88.2664L87.9087 103.138L87.6404 102.512L87.1038 102.333L87.5509 101.975V101.349ZM91.7542 99.1134L92.2013 99.4712L92.8274 99.2923L92.6485 99.8289L93.0062 100.365H92.3802L92.0225 100.902L91.8436 100.276L91.2176 100.097L91.6648 99.7395L91.7542 99.1134ZM74.0469 110.739L74.5835 111.097L75.1201 110.918L74.9412 111.544L75.2989 111.991H74.7623L74.4046 112.528L74.1363 111.991L73.5997 111.813L74.0469 111.365V110.739ZM78.1607 108.593L78.6973 108.861L79.3233 108.683L79.1445 109.309L79.5022 109.845H78.8762L78.5184 110.292L78.2501 109.756L77.7136 109.577L78.1607 109.219V108.593ZM82.3639 106.357L82.9005 106.715L83.4371 106.536L83.2583 107.073L83.616 107.609H82.99L82.6322 108.146L82.4534 107.52L81.8274 107.341L82.3639 106.983V106.357ZM86.4778 104.122L87.0144 104.479L87.6404 104.3L87.4615 104.926L87.8192 105.374H87.1932L86.8355 105.91L86.5672 105.374L86.0306 105.105L86.4778 104.748V104.122ZM90.681 101.886L91.1282 102.244L91.7542 102.065L91.5753 102.691L91.9331 103.138H91.307L90.9493 103.674L90.7704 103.138L90.1444 102.959L90.681 102.512V101.886ZM72.7949 113.691L73.3315 114.048L73.9575 113.87L73.7786 114.496L74.1363 114.943H73.5103L73.1526 115.479L72.8843 114.943L72.3477 114.674L72.7949 114.317V113.691ZM76.9981 111.544L77.5347 111.813L78.0713 111.634L77.8924 112.26L78.2501 112.796H77.6241L77.2664 113.244L77.0875 112.707L76.4615 112.528L76.9981 112.081V111.544ZM81.1119 109.309L81.6485 109.666L82.1851 109.487L82.0957 110.024L82.4534 110.561H81.8274L81.4696 111.097L81.2014 110.471L80.6648 110.292L81.1119 109.935V109.309ZM85.3152 107.073L85.7623 107.431L86.3883 107.252L86.2095 107.788L86.5672 108.325H85.9412L85.5835 108.861L85.4046 108.235L84.7786 108.057L85.3152 107.699V107.073ZM89.429 104.837L89.9656 105.195L90.5022 105.016L90.3233 105.642L90.681 106.089H90.1444L89.6973 106.626L89.5184 106.089L88.9818 105.821L89.429 105.463V104.837V104.837ZM93.5428 102.691L94.0794 102.959L94.7054 102.78L94.5265 103.406L94.8843 103.853H94.2582L93.9005 104.39L93.6322 103.853L93.0956 103.674L93.5428 103.227V102.691ZM75.9249 114.317L76.4615 114.674L77.0875 114.496L76.9087 115.122L77.2664 115.569H76.6404L76.2827 116.105L76.0144 115.569L75.4778 115.3L75.9249 114.943V114.317ZM80.1282 112.17L80.5753 112.439L81.2014 112.26L81.0225 112.886L81.3802 113.333H80.7542L80.3965 113.87L80.2176 113.333L79.5916 113.154L80.1282 112.707V112.17ZM84.242 109.935L84.7786 110.292L85.3152 110.113L85.2257 110.65L85.5835 111.187H84.9574L84.5997 111.723L84.3314 111.097L83.7948 110.918L84.242 110.561V109.935ZM88.3558 107.699L88.8924 108.057L89.5184 107.878L89.3396 108.414L89.6973 108.951H89.0713L88.7135 109.487L88.5347 108.861L87.9087 108.683L88.3558 108.325V107.699ZM92.5591 105.463L93.0956 105.821L93.6322 105.642L93.4534 106.268L93.8111 106.715H93.1851L92.8274 107.252L92.6485 106.715L92.0225 106.447L92.5591 106.089V105.463ZM74.6729 117.268L75.2095 117.626L75.8355 117.447L75.6566 118.073L76.0144 118.52H75.3884L75.0306 119.057L74.8518 118.52L74.2258 118.252L74.7623 117.894V117.268H74.6729ZM78.8762 115.122L79.4127 115.39L79.9493 115.211L79.8599 115.837L80.2176 116.374H79.5916L79.2339 116.821L78.9656 116.284L78.429 116.105L78.8762 115.658V115.122ZM82.99 112.886L83.5266 113.244L84.1526 113.065L83.9737 113.601L84.3314 114.138H83.7054L83.3477 114.585L83.0794 114.048L82.5428 113.87L82.99 113.512V112.886ZM87.1932 110.65L87.7298 111.008L88.2664 110.829L88.0875 111.365L88.4452 111.902H87.8192L87.4615 112.439L87.2826 111.813L86.6566 111.634L87.1932 111.276V110.65ZM91.307 108.414L91.8436 108.772L92.3802 108.593L92.2908 109.219L92.6485 109.666H92.0225L91.6648 110.203L91.3965 109.666L90.8599 109.398L91.307 109.04V108.414ZM95.5103 106.178L95.9574 106.536L96.5834 106.357L96.4046 106.983L96.7623 107.431H96.1363L95.7786 107.967L95.5997 107.431L94.9737 107.252L95.5103 106.804V106.178Z" fill="white"/>
</g>
<path id="Vector_18" fill-rule="evenodd" clip-rule="evenodd" d="M191.916 132.739L117.33 164.309L117.241 164.219V164.398C117.241 164.398 110.444 168.243 104.81 172.268C103.29 173.341 98.9077 176.918 94.4361 175.577C84.1516 173.52 79.5906 154.113 84.1516 153.398C89.7857 152.414 89.0703 154.113 91.1272 152.951C94.2573 151.162 92.0215 150.983 92.0215 150.983C92.0215 150.983 87.55 151.43 87.1028 145.617C86.8345 142.487 92.0215 144.634 95.0622 145.439C101.948 148.122 108.477 151.699 114.558 149.642C114.737 149.642 114.916 149.642 115.095 149.642C124.395 143.561 172.867 112.081 177.964 111.008C183.599 109.756 204.794 127.105 191.916 132.739Z" fill="#F5C7A6"/>
</g>
</g>
</svg>
