<svg width="81" height="49" viewBox="0 0 81 49" fill="none" xmlns="http://www.w3.org/2000/svg">
<g id="CAP 1">
<path id="Vector" fill-rule="evenodd" clip-rule="evenodd" d="M41.8203 0C44.4137 0 46.4706 0.447154 46.4706 1.07317C46.4706 1.69919 44.4137 2.14634 41.8203 2.14634C39.2268 2.14634 37.2593 1.69919 37.2593 1.07317C37.2593 0.447154 39.3162 0 41.8203 0Z" fill="#252525"/>
<path id="Vector_2" fill-rule="evenodd" clip-rule="evenodd" d="M40.9242 40.1545C21.786 40.1545 5.77788 43.7317 2.02179 48.3821C2.02179 30.496 4.25755 7.78055 23.8429 4.82933C31.8917 3.66673 34.8429 1.07324 42.1762 1.07324C48.8835 1.07324 52.1924 3.13015 58.9892 4.38218C78.6639 8.13827 79.7371 30.1382 79.8266 48.3821C75.981 43.7317 60.0624 40.1545 40.9242 40.1545Z" fill="#F0F0F0"/>
<path id="Rectangle 1176 copy 1" fill-rule="evenodd" clip-rule="evenodd" d="M8.4608 44.626C6.04617 45.3415 3.8104 46.5935 2.02179 48.3821C2.02179 36.2195 3.09495 21.7318 9.98112 12.8781C7.20877 23.2521 6.67219 34.0732 8.4608 44.626ZM73.3875 44.626C74.103 39.8862 75.1761 28.0814 70.6152 10.9106L71.5095 11.2684C79.2005 20.122 79.8266 35.1464 79.8266 48.3821C78.0379 46.5935 75.8022 45.2521 73.3875 44.626Z" fill="black"/>
<path id="Vector_3" fill-rule="evenodd" clip-rule="evenodd" d="M41.5512 39.0813C16.8683 39.0813 -0.212937 48.0243 0.413078 48.6504C1.03909 49.2764 16.1529 45.6991 41.5512 45.6991C69.2748 45.6991 79.1121 49.7235 80.1853 48.6504C81.2585 47.5772 66.2341 38.9918 41.5512 39.0813Z" fill="#232A2C"/>
<g id="Group 2 copy 1">
<path id="Shape 1 copy 7 2 1" fill-rule="evenodd" clip-rule="evenodd" d="M49.4201 32.106C48.2575 33.0003 46.9161 33.5369 45.4852 33.8947C43.9649 34.2524 42.4445 34.6101 41.8185 35.6833L41.4608 36.3093L41.1031 35.6833C40.4771 34.6101 39.0462 34.2524 37.5258 33.8947C36.095 33.6264 34.6641 33.0003 33.5015 32.106C32.2494 31.0329 31.6234 29.4231 31.6234 27.2768V10.5532H51.2982V27.2768C51.2982 29.4231 50.6722 31.0329 49.4201 32.106Z" fill="black"/>
<path id="Shape 1 copy 6 1" fill-rule="evenodd" clip-rule="evenodd" d="M31.9812 27.2765V10.9106H50.9405V27.2765C50.9405 34.6098 43.4283 32.2846 41.4609 35.5041C39.4934 32.2846 31.9812 34.6098 31.9812 27.2765Z" fill="#E9B209"/>
<path id="Shape 1 copy 8 1" fill-rule="evenodd" clip-rule="evenodd" d="M45.3064 26.1142L41.4609 22.8946L37.6153 26.1142H31.9812V18.6914H50.9405V26.1142H45.3064Z" fill="#CA1517"/>
<path id="Shape 1 copy 11 1" fill-rule="evenodd" clip-rule="evenodd" d="M50.9405 18.6911H31.9812V10.9106H50.9405V18.6911Z" fill="#151920"/>
<path id="Shape 1 copy 4 1" fill-rule="evenodd" clip-rule="evenodd" d="M46.648 31.122L46.5585 30.2277L46.9162 30.1383L46.648 31.122ZM45.3065 29.5123V31.3009L44.6805 31.6586L44.9488 31.0326H45.3065H44.6805L44.9488 29.4228L43.7862 30.0489L43.4285 29.6017L43.7862 30.0489V30.5854L43.339 30.0489V29.6017L44.8593 29.1546L43.0707 27.3659L43.6967 27.0082L45.3065 28.9757L46.4691 28.4391L46.9162 28.7968V29.5123L46.4691 29.0651L45.3959 29.244L46.9162 30.1383L46.2902 30.4066L45.3065 29.5123ZM41.461 16.4554H41.2821C40.7455 16.7237 40.1195 16.6342 39.6723 16.2765C39.8512 16.2765 40.0301 16.2765 40.2089 16.2765C39.7618 16.1871 39.4041 16.0082 39.1358 15.6505C39.6724 15.9188 40.2984 16.0977 40.9244 16.0977C40.7455 15.6505 40.2984 15.2034 39.8512 15.6505C39.0463 14.309 40.2089 13.9513 41.0138 14.6668L41.5504 16.2765H41.461V16.4554ZM39.9406 27.2765L38.0626 29.0651L39.5829 29.5123V29.9594L39.1358 30.496V29.9594L39.4935 29.5123L39.1358 29.9594L37.9732 29.3334L38.2415 30.9432H37.6155H37.9732L38.2415 31.5692L37.6155 31.3009V29.4228L36.7211 30.3172L36.0057 30.0489L37.526 29.1546L36.4528 28.9757L36.0057 29.4228V28.7074L36.4528 28.3497L37.6155 28.8863L39.2252 26.9188L39.9406 27.2765ZM36.274 31.0326L35.9163 30.1383V30.0489L36.3634 30.2277L36.274 31.0326Z" fill="#E52421"/>
<path id="Shape 1 copy 3 1" fill-rule="evenodd" clip-rule="evenodd" d="M48.08 15.7396C48.5271 16.0973 48.7954 16.7233 48.706 17.2599C48.706 19.9428 45.8442 21.016 43.1613 21.2843C43.0718 22.5363 42.8035 23.7883 42.5352 25.0404L44.8604 27.5444L43.519 27.3656V29.0647L42.5352 27.455C42.5352 31.3005 43.6084 31.6582 44.5027 31.3005C44.3239 32.016 42.9824 32.3737 42.3564 31.8371L41.4621 32.8208L40.5678 31.9265C39.9417 32.3737 38.6003 32.016 38.5109 31.3005C39.4052 31.6582 40.3889 31.3005 40.3889 27.455L39.3157 29.0647V27.2761L38.0637 27.5444L40.3889 25.0404C40.1206 23.7883 39.9418 22.5363 39.8523 21.2843C37.08 21.016 34.2182 20.0322 34.2182 17.2599C34.1288 16.7233 34.397 16.0973 34.8442 15.7396C34.5759 15.6501 34.3076 15.3818 34.2182 15.0241C35.1125 15.5607 36.9011 13.7721 38.1531 15.7396C37.9743 16.455 37.3483 16.8127 36.6328 16.6339C36.3645 16.5444 36.0962 16.3656 35.9174 16.1867C35.2913 16.9916 35.2019 19.0485 39.7629 19.5851C39.9418 17.7965 41.0149 17.7965 40.9255 16.5444C41.0149 16.455 41.1938 16.3656 41.2832 16.2761C41.2832 15.7396 40.3889 14.577 40.8361 14.3087C41.2832 14.0404 42.4458 15.203 43.3401 14.8453C43.1613 15.1135 42.893 15.2924 42.6247 15.3818C43.0718 16.7233 43.3401 18.1542 43.3401 19.5851C47.8117 19.0485 47.6328 16.9022 47.0068 16.1867C46.5596 16.7233 45.8442 16.9022 45.2182 16.455C44.9499 16.2761 44.771 16.0079 44.771 15.7396C46.1125 13.7721 47.8117 15.5607 48.706 15.0241C48.6165 15.3818 48.3482 15.6501 48.08 15.7396Z" fill="black"/>
<path id="Shape 1 copy 10 1" fill-rule="evenodd" clip-rule="evenodd" d="M47.8104 28.3497V17.2603H48.7047V29.0651L47.8104 28.3497ZM46.6477 27.3659V19.3172H47.5421V28.1708L46.6477 27.3659ZM45.4851 26.3822V20.3009H46.3795V27.0976L45.4851 26.3822ZM44.412 25.3985V20.6586H45.3063V26.1139L44.412 25.3985ZM43.2494 24.4147V20.6586H44.1437V25.1302L43.2494 24.4147ZM38.7778 25.1302V20.6586H39.6721V24.4147L38.7778 25.1302ZM37.7047 26.1139V20.6586H38.599V25.3985L37.7047 26.1139ZM36.5421 27.0976V20.3009H37.4364V26.3822L36.5421 27.0976ZM35.29 28.1708V19.496H36.1844V27.2765L35.29 28.1708ZM34.1274 29.1545V17.2603H35.0217V28.3497L34.1274 29.1545Z" fill="black"/>
<path id="Shape 1 copy 2 1" fill-rule="evenodd" clip-rule="evenodd" d="M48.6152 29.0653V18.0653C48.7047 17.797 48.7047 17.4393 48.7047 17.171V17.0815H48.7941V29.0653H48.6152ZM39.6721 21.2848H39.7616V24.3254L39.5827 24.5043L39.6721 21.2848ZM38.7778 21.1954H38.9567V25.0409L38.6884 25.2197V21.1954H38.7778ZM38.4201 21.1954H38.6884V25.3092L38.4201 25.488V21.0165V21.1954ZM37.5258 20.9271H37.7941V26.0246L37.5258 26.2035V20.9271ZM37.347 20.8376H37.5258V26.2035L37.347 26.4718V20.8376ZM36.4526 20.4799H36.6315V27.0084L36.4526 27.1872V20.4799ZM36.1844 20.3011L36.3632 20.3905V27.2767L36.1844 27.4555V20.3011ZM35.29 19.675L35.4689 19.8539V27.9921L35.29 28.171V19.675ZM35.0217 19.4067L35.2006 19.5856V28.2604L35.0217 28.4392V19.4962V19.4067ZM34.1274 17.171H34.2169V17.2604C34.2169 17.5287 34.2169 17.8864 34.3063 18.1547V28.9758L34.1274 29.1547V17.171ZM45.3957 20.9271V26.2929L45.1274 26.0246V21.0165L45.3957 20.9271ZM45.664 20.8376V26.3823L45.3957 26.2035V20.8376L45.664 20.7482V20.8376ZM46.5583 20.4799V27.1872L46.29 27.0084V20.5693L46.4689 20.4799H46.5583V20.4799ZM46.7372 20.3011V27.4555L46.5583 27.2767V20.3905L46.7372 20.3011ZM47.6315 19.675V28.171L47.4526 27.9921V19.8539C47.4526 19.8539 47.6315 19.675 47.6315 19.675ZM47.8998 19.4067V28.3498L47.7209 28.2604V19.5856L47.8998 19.4067ZM44.3226 21.1954H44.5014V25.488L44.3226 25.3092V21.1954ZM44.0543 25.0409V21.1954H44.2331V25.2197L44.0543 25.0409ZM43.16 21.2848H43.3388V24.5937L43.16 24.4149V21.2848Z" fill="white"/>
<path id="Shape 1 copy 9 1" fill-rule="evenodd" clip-rule="evenodd" d="M48.7937 15.0244C48.7042 15.3821 48.5254 15.6504 48.2571 15.8293C48.6148 16.187 48.7937 16.7236 48.7937 17.2602C48.7937 18.5122 48.0782 19.6748 47.0051 20.3008C45.8425 20.9268 44.5904 21.2845 43.249 21.374C43.1595 22.5366 42.8912 23.7886 42.6229 24.9512L45.127 27.7236L44.2327 27.5447L45.3059 28.8862L46.4685 28.3496L47.0051 28.7073V29.691L46.4685 29.1545L45.6636 29.2439L47.0945 30.1382L46.6473 31.3902L46.4685 30.4065L46.2002 30.4959L45.3059 29.6016V31.3902L44.501 31.8374L44.7693 31.1219H44.5904L44.8587 29.6016L43.9644 30.0488L43.875 30.7642L43.249 30.0488V29.5122L44.7693 29.1545L43.6961 28.0813V29.4228L42.6229 27.7236C42.6229 29.6016 42.8912 30.7642 43.5173 31.2114C43.7855 31.3902 44.1433 31.3902 44.4116 31.2114H44.5904V31.3902C44.501 31.7479 44.2327 32.0162 43.875 32.1057C43.3384 32.2845 42.8018 32.2845 42.3546 32.0162L41.4603 32.9105L40.566 32.0162C40.1189 32.2845 39.4929 32.2845 39.0457 32.0162C38.688 31.9268 38.4197 31.6585 38.3303 31.3008V31.2114H38.5091C38.7774 31.3902 39.1352 31.3902 39.4034 31.2114C40.0295 30.7642 40.2978 29.6016 40.2978 27.7236L39.2246 29.4228V28.0813L38.1514 29.1545L39.6717 29.5122V30.0488L39.0457 30.7642V30.0488L38.062 29.5122L38.3303 31.1219H38.1514L38.4197 31.8374L37.5254 31.3902V29.6016L36.6311 30.4959L36.4522 30.4065L36.2734 31.3902L35.8262 30.1382L37.2571 29.2439L36.3628 29.1545L35.9156 29.691V28.7967L36.4522 28.3496L37.6148 28.8862L38.688 27.5447L37.7937 27.7236L40.2978 25.0406C40.0295 23.878 39.7612 22.626 39.6717 21.4634C38.3303 21.374 37.0782 20.9268 35.9156 20.3008C34.8425 19.6748 34.127 18.5122 34.127 17.2602C34.127 16.7236 34.3059 16.187 34.6636 15.8293C34.3953 15.6504 34.2165 15.3821 34.127 15.0244L34.0376 14.7561L34.2165 14.935C34.5742 15.1138 35.1108 15.1138 35.4685 14.935C36.3628 14.6667 37.3465 14.3984 38.1514 15.7398C38.062 16.2764 37.7043 16.7236 37.1677 16.813C36.7205 16.9024 36.1839 16.7236 35.9156 16.3659C35.7368 16.813 35.7368 17.2602 35.9156 17.7073C36.0945 18.3333 36.9888 19.1382 39.6717 19.4959C39.7612 18.8699 40.0295 18.2439 40.3872 17.7968C40.6555 17.439 40.8343 17.0813 40.8343 16.6341C40.7449 16.6341 40.6555 16.6341 40.566 16.6341C40.2083 16.6341 39.94 16.5447 39.6717 16.3659L39.314 16.187H39.6717C39.4034 16.0976 39.2246 15.9187 39.0457 15.6504L38.7774 15.2927L39.2246 15.561C39.6717 15.7398 40.1189 15.9187 40.6555 15.9187C40.566 15.7398 40.4766 15.6504 40.2978 15.561C40.1189 15.561 39.94 15.561 39.8506 15.7398H39.7612C39.2246 14.8455 39.5823 14.4878 39.7612 14.3984C40.0295 14.2195 40.3872 14.2195 40.6555 14.3089V14.2195C41.0132 14.0407 41.4603 14.1301 41.7286 14.3984C42.1758 14.7561 42.8018 14.935 43.3384 14.7561L43.6067 14.5772L43.4278 14.8455C43.249 15.1138 42.9807 15.2927 42.7124 15.3821C43.1595 16.7236 43.4278 18.065 43.4278 19.4959C45.9319 19.1382 46.8262 18.3333 47.0051 17.7073C47.1839 17.2602 47.1839 16.813 47.0051 16.3659C46.7368 16.7236 46.2002 16.9024 45.753 16.813C45.2164 16.7236 44.7693 16.3659 44.6799 15.8293V15.6504C45.5742 14.3089 46.6473 14.5772 47.4522 14.7561C47.8099 14.935 48.2571 15.0244 48.7042 14.8455L48.8831 14.6667L48.7937 15.0244ZM46.5579 29.065L46.8262 29.3333V28.7967L46.5579 28.6179V29.065ZM36.0945 28.7967V29.3333L36.3628 29.065V28.6179L36.0945 28.7967ZM39.6717 16.0081C39.94 16.187 40.2083 16.2764 40.4766 16.0976C40.2083 16.0976 39.94 16.0976 39.6717 16.0081ZM40.8343 16.2764L40.1189 16.3659C40.2977 16.4553 40.3872 16.4553 40.566 16.4553C41.0132 16.3659 41.1026 16.2764 41.1026 16.187V16.0081H40.9238C40.9238 16.0976 40.9238 16.187 40.8343 16.2764ZM46.7368 30.7642L46.9156 30.2276L46.6473 30.3171L46.7368 30.7642ZM44.8587 31.4797L45.2164 31.3008V31.1219H45.0376L44.8587 31.4797ZM43.4278 30.0488L43.6961 30.4065V29.9593L43.4278 29.6016V30.0488ZM43.6961 27.9024L45.0376 29.1545L43.5173 29.6016L43.875 29.9593L45.127 29.2439L44.7693 31.0325H45.2164V29.2439L46.2896 30.3171L46.8262 30.1382L45.2164 29.2439L46.379 28.9756V28.5284L45.2164 29.065L44.0538 27.5447L43.6961 27.4553V27.9024V27.9024ZM39.2246 30.4065L39.4929 30.0488V29.691L39.2246 30.0488V30.4065ZM38.1514 31.4797L37.9725 31.1219H37.7043V31.3008L38.1514 31.4797ZM36.1839 30.8536V30.4065H36.0051L36.1839 30.8536ZM37.6148 29.065L36.4522 28.6179V29.065L37.6148 29.2439L36.0945 30.1382L36.5416 30.4065L37.6148 29.4228V30.8536H38.062L37.7043 29.1545L38.9563 29.8699L39.314 29.5122L37.7937 29.065L39.1351 27.813V27.3658H38.7774L37.6148 29.065ZM39.7612 20.1219H39.5823V19.6748C36.8994 19.4065 36.0051 18.6016 35.5579 17.8862C35.2896 17.2602 35.3791 16.6341 35.7368 16.0976L35.8262 16.0081L35.9156 16.0976C36.1839 16.4553 36.6311 16.6341 37.0782 16.5447C37.5254 16.4553 37.7937 16.187 37.9725 15.8293C37.1677 14.6667 36.1839 14.935 35.3791 15.1138C35.0213 15.2033 34.6636 15.2927 34.3059 15.2033C34.3953 15.3821 34.5742 15.561 34.753 15.6504L34.9319 15.7398L34.8425 15.8293C34.3953 16.187 34.2165 16.7236 34.2165 17.2602C34.2165 18.5122 34.9319 19.5854 36.0051 20.1219C37.1677 20.748 38.4197 21.1057 39.7612 21.1951V21.2845C39.8506 22.5366 40.1189 23.7886 40.4766 25.0406L38.2408 27.4553L39.4034 27.187V28.7073L40.4766 27.0975V27.3658C40.4766 29.6016 40.1189 30.9431 39.4929 31.3008C39.2246 31.4797 38.8669 31.5691 38.5986 31.4797C38.688 31.6585 38.8669 31.8374 39.0457 31.9268C39.4929 32.1057 40.0295 32.0162 40.3872 31.7479L41.3709 32.6423L42.2652 31.7479H42.3546C42.7124 32.0162 43.249 32.1057 43.6961 31.9268C43.9644 31.8374 44.1433 31.6585 44.2327 31.4797C43.9644 31.5691 43.6067 31.4797 43.3384 31.3008C42.6229 30.8536 42.2652 29.5122 42.2652 27.4553V27.0975L43.3384 28.7073V27.187L44.501 27.4553L42.2652 25.0406C42.5335 23.7886 42.8018 22.5366 42.8912 21.2845H42.9807V21.1951C43.1595 20.6585 43.1595 20.2114 43.1595 19.6748L41.9969 19.7642H39.8506L39.7612 20.1219ZM40.4766 14.4878C40.2977 14.3984 39.94 14.3984 39.7612 14.4878C39.4929 14.7561 39.4929 15.2033 39.7612 15.4715C39.94 15.3821 40.1189 15.3821 40.2978 15.4715C40.566 15.561 40.7449 15.7398 40.8343 16.0081H41.0132L40.8343 15.561C40.6555 15.2033 40.4766 14.8455 40.4766 14.4878ZM42.4441 15.3821C42.6229 15.2927 42.8018 15.1138 42.9807 15.0244C42.4441 15.0244 41.9969 14.8455 41.5498 14.5772C41.3709 14.3984 41.0132 14.3089 40.7449 14.3089V14.3984C40.8343 14.4878 40.8343 14.4878 40.9238 14.5772V14.6667C40.9238 14.7561 40.9238 14.935 40.9238 15.0244C41.1026 14.7561 41.1026 14.7561 41.2815 14.8455C41.1921 14.935 41.1921 15.0244 41.1026 15.1138H40.9238C40.8343 14.935 40.7449 14.8455 40.7449 14.6667C40.8343 14.935 40.9238 15.2927 41.0132 15.561L41.2815 16.0081C41.3709 16.187 41.3709 16.3659 41.1921 16.5447C41.1026 16.5447 41.0132 16.5447 40.9238 16.5447C40.9238 16.9919 40.8343 17.5285 40.4766 17.8862C40.1189 18.3333 39.8506 18.8699 39.7612 19.4959C40.9238 19.5854 41.9969 19.5854 43.1595 19.4959C43.1595 18.065 42.8912 16.7236 42.4441 15.3821ZM47.3628 15.1138C46.4685 14.8455 45.5742 14.6667 44.8587 15.8293C45.0376 16.187 45.3059 16.4553 45.753 16.5447C46.2002 16.6341 46.5579 16.4553 46.8262 16.0976L46.9156 16.0081L47.0051 16.0976C47.3628 16.6341 47.4522 17.2602 47.1839 17.8862C46.8262 18.5122 45.8425 19.3171 43.3384 19.6748C43.3384 20.2114 43.3384 20.6585 43.1595 21.1951C44.4116 21.1057 45.6636 20.748 46.7368 20.1219C47.8099 19.5854 48.5254 18.5122 48.5254 17.2602C48.5254 16.7236 48.3465 16.187 47.8994 15.8293V15.7398C48.1677 15.6504 48.3465 15.4715 48.4359 15.2033C48.0782 15.2927 47.7205 15.2033 47.3628 15.1138ZM39.7612 19.5854L43.1595 19.4959V19.7642C43.1595 19.7642 39.94 20.3008 39.7612 19.7642C39.7612 19.6748 39.7612 19.5854 39.7612 19.5854Z" fill="white"/>
<path id="Shape 1 copy 1" fill-rule="evenodd" clip-rule="evenodd" d="M33.3246 11.984C33.414 11.984 33.5929 11.984 33.6823 11.984C33.8612 11.984 34.04 11.984 34.2189 12.0734C34.3978 12.3417 34.4872 12.61 34.3978 12.8783C34.3978 13.1466 34.3978 13.4149 34.2189 13.5937C34.04 13.7726 33.8612 13.7726 33.5929 13.7726C33.5034 13.7726 33.414 13.7726 33.3246 13.7726V11.984ZM33.6823 13.5043C33.9506 13.5043 34.04 13.3254 34.04 12.7888C34.04 12.4311 34.04 12.1628 33.7717 12.1628H33.6823V13.5043ZM35.7392 12.9677H35.2921V13.5043H35.7392V13.7726H34.8449V11.984H35.7392V12.2523H35.2921V12.6994H35.7392C35.7392 12.6994 35.7392 12.9677 35.7392 12.9677ZM36.6335 11.8945V13.1466C36.6335 13.4149 36.7229 13.5043 36.8124 13.5043C36.9018 13.5043 36.9912 13.5043 36.9912 13.1466V11.8945H37.349V13.0571C37.349 13.5937 37.1701 13.862 36.8124 13.862C36.4547 13.862 36.2758 13.5937 36.2758 13.0571V11.8945H36.6335ZM38.1538 12.2523H37.7961V11.8945H38.8693V12.2523H38.5116V13.7726H38.1538V12.2523ZM39.227 13.4149C39.3164 13.5043 39.4953 13.5043 39.5847 13.5043C39.6742 13.5043 39.7636 13.4149 39.7636 13.3254C39.7636 13.1466 39.6742 13.0571 39.5847 12.9677C39.4059 12.8783 39.227 12.6994 39.227 12.4311C39.227 12.1628 39.4953 11.8945 39.7636 11.8945C39.853 11.8945 40.0319 11.8945 40.1213 11.8945L40.0319 12.2523C39.9425 12.2523 39.853 12.2523 39.7636 12.2523C39.6742 12.2523 39.5847 12.3417 39.5847 12.4311C39.5847 12.5205 39.7636 12.6994 39.853 12.6994C40.0319 12.7888 40.1213 13.0571 40.1213 13.236C40.2107 13.5043 39.9425 13.7726 39.6742 13.862C39.5847 13.862 39.5847 13.862 39.4953 13.862C39.4059 13.862 39.227 13.862 39.1376 13.7726L39.227 13.4149ZM41.5522 13.7726C41.4628 13.7726 41.3733 13.7726 41.2839 13.7726C40.8368 13.6831 40.479 13.3254 40.5685 12.8783C40.5685 12.4311 40.8368 12.0734 41.2839 11.984C41.3733 11.984 41.4628 11.984 41.5522 11.984V12.2523C41.4628 12.2523 41.3733 12.2523 41.2839 12.2523C41.1051 12.2523 40.9262 12.4311 40.9262 12.8783C40.9262 13.3254 41.1051 13.5043 41.2839 13.5043C41.3733 13.5043 41.3733 13.5043 41.4628 13.5043L41.5522 13.7726ZM42.3571 11.984V12.6994H42.7148V11.8945H43.0725V13.862H42.7148V13.1466H42.3571V13.862H41.9994V12.0734L42.3571 11.984ZM43.6985 11.984H44.0563V13.5043H44.5034V13.7726H43.6091V11.984H43.6985ZM45.3083 13.4149V13.7726H44.8611L45.3083 11.984H45.7555L46.1132 13.7726H45.7555L45.666 13.4149H45.3083ZM45.666 13.0571L45.5766 12.6994V12.2523L45.3977 12.6994V13.0571H45.666ZM46.5603 13.7726V11.984H46.9181L47.1864 12.6994L47.3652 13.236V11.8945H47.7229V13.862H47.3652L47.0969 13.1466C47.0075 12.9677 46.9181 12.7888 46.8286 12.61V13.862H46.5603V13.7726ZM48.2595 11.984C48.349 11.984 48.5278 11.984 48.6172 11.984C48.7961 11.984 48.975 11.984 49.1538 12.0734C49.3327 12.2523 49.4221 12.61 49.4221 12.8783C49.4221 13.1466 49.3327 13.4149 49.1538 13.5937C48.975 13.7726 48.7961 13.7726 48.5278 13.7726C48.4384 13.7726 48.349 13.7726 48.2595 13.7726V11.984ZM48.6172 13.5043C48.8855 13.5043 49.0644 13.3254 49.0644 12.7888C49.0644 12.4311 48.8855 12.1628 48.7067 12.1628V13.5043H48.6172Z" fill="white"/>
</g>
</g>
</svg>
