<svg width="90" height="123" viewBox="0 0 90 123" fill="none" xmlns="http://www.w3.org/2000/svg">
<g id="HEAD 1">
<path id="Ellipse 1 copy 2 1" fill-rule="evenodd" clip-rule="evenodd" d="M86.6158 68.1787C87.1523 76.2275 82.1442 75.8697 79.819 73.5445C78.8353 79.1787 77.1361 85.886 74.4532 90.8047C71.9491 95.2762 68.6402 97.1543 65.7784 100.463C57.6402 110.122 55.0467 110.301 46.1036 110.301C37.0711 110.301 33.8516 110.032 25.624 100.284C22.9411 96.9754 20.1687 95.1868 17.6646 90.8047C14.8029 85.0811 12.7459 78.9998 11.4045 72.7397C9.79473 75.6909 3.44515 77.0323 4.07117 68.2681C4.51832 64.6909 -3.08329 57.0893 3.62401 52.1706C4.87604 51.1868 6.66466 51.2763 7.6484 52.5283L7.73783 52.6177C5.5915 34.9999 6.57522 0.926758 46.0142 0.926758C85.1849 0.926758 85.8109 34.4633 83.3963 52.26C84.4694 51.2763 85.9897 51.2763 87.0629 52.26C93.7702 57.0893 86.1686 64.6909 86.6158 68.1787Z" fill="#F5C7A6"/>
<path id="Shape 160 copy 1" fill-rule="evenodd" clip-rule="evenodd" d="M83.4875 51.7233C83.3981 51.9021 83.3086 51.9916 83.1298 52.081C80.9834 52.8859 82.146 54.7639 80.894 58.9671C80.3574 60.7558 79.8208 60.2192 78.9265 58.52C80.7151 50.6501 81.0729 39.829 78.6582 37.3249C72.5769 30.9753 74.0973 26.8615 72.2192 23.7314C70.9672 20.1542 70.3412 14.1623 73.829 12.7314C76.2436 14.1623 78.2111 16.1298 79.642 18.5444C85.0078 29.1867 84.7395 42.5119 83.4875 51.7233ZM12.0323 37.3249C9.61768 39.829 10.0648 50.6501 11.764 58.52C10.8697 60.3086 10.3331 60.8452 9.79655 58.9671C8.63395 54.8533 9.79655 52.8859 7.65021 52.1704C6.39818 41.4387 6.39818 25.3412 14.9835 13.9835C15.5201 13.5363 16.1461 13.0892 16.7721 12.7314C20.3494 14.1623 19.8128 20.1542 18.5608 23.7314C16.6827 26.8615 18.1136 30.9753 12.0323 37.3249Z" fill="#525150"/>
<g id="Group">
<path id="Vector" fill-rule="evenodd" clip-rule="evenodd" d="M53.2576 75.3332C52.3632 77.7478 51.2901 76.5852 48.0706 78.2844C46.4608 78.821 44.8511 78.821 43.2413 78.2844C40.469 76.8535 38.8592 76.943 37.9649 74.5283C37.786 71.9348 39.3064 70.0568 40.0218 68.5365C41.8998 61.7397 42.973 54.7641 43.1519 47.6991C42.973 45.5528 48.2494 45.5528 48.16 47.6991C48.3389 54.7641 49.3226 61.7397 51.1112 68.5365C51.8267 69.7885 53.7941 71.4877 53.2576 75.3332Z" fill="url(#paint0_linear_5_202)"/>
</g>
<path id="Ellipse 3 copy 3 1" fill-rule="evenodd" clip-rule="evenodd" d="M7.02191 68.1789C6.30647 68.5366 6.1276 66.4797 5.76987 63.9757C5.41215 61.4716 5.14386 59.4147 5.76987 58.9675C6.39589 58.5204 7.2902 60.309 7.55849 62.8131C7.82678 65.3171 7.64793 67.7317 7.02191 68.1789ZM82.5909 67.8212C83.2169 68.3578 83.7535 66.3009 84.3795 63.8862C85.0055 61.4716 85.6316 59.4147 85.0055 58.8781C84.3795 58.3415 83.3064 59.9513 82.5909 62.4553C81.8755 64.9594 81.8755 67.2846 82.5909 67.8212Z" fill="#DDAF8F"/>
<path id="Vector_2" fill-rule="evenodd" clip-rule="evenodd" d="M29.5597 52.4392C32.2426 52.3498 34.3889 54.4961 34.4783 57.1791C34.5678 59.862 32.4214 62.0083 29.7385 62.0977C27.0556 62.1872 24.9093 60.0408 24.8198 57.3579C24.8198 57.2685 24.8198 57.2685 24.8198 57.1791C24.8198 54.5856 26.9662 52.4392 29.5597 52.4392Z" fill="#2D2321"/>
<path id="Ellipse 4 copy 1" fill-rule="evenodd" clip-rule="evenodd" d="M28.3065 54.1377C29.022 54.1377 29.648 54.7637 29.648 55.4792C29.648 56.1946 29.022 56.8206 28.3065 56.8206C27.5911 56.8206 26.9651 56.1946 26.9651 55.4792C26.8756 54.7637 27.4122 54.2271 28.1277 54.1377C28.2171 54.1377 28.2171 54.1377 28.3065 54.1377Z" fill="white"/>
<path id="Vector_3" fill-rule="evenodd" clip-rule="evenodd" d="M29.7374 59.9511C34.6561 60.1299 38.6805 61.5608 38.591 63.1706C38.5016 64.7803 34.4772 65.8535 29.5585 65.6746C24.6398 65.4958 20.6155 64.0649 20.7049 62.4551C20.7943 60.8454 24.8187 59.7722 29.7374 59.9511Z" fill="#F5C7A6"/>
<path id="Ellipse 4 copy 2 1" fill-rule="evenodd" clip-rule="evenodd" d="M62.2911 52.5279C64.974 52.349 67.2992 54.3165 67.4781 56.9994C67.6569 59.6823 65.6895 62.0075 63.0065 62.1864C60.3236 62.3653 57.9984 60.3978 57.8196 57.7149C57.8196 57.6254 57.8196 57.6254 57.8196 57.536C57.6407 54.9425 59.6976 52.7067 62.2911 52.5279Z" fill="#2D2321"/>
<path id="Ellipse 4 copy 2 2 1" d="M61.1262 56.9103C61.8177 56.9103 62.3782 56.3498 62.3782 55.6583C62.3782 54.9668 61.8177 54.4062 61.1262 54.4062C60.4347 54.4062 59.8741 54.9668 59.8741 55.6583C59.8741 56.3498 60.4347 56.9103 61.1262 56.9103Z" fill="white"/>
<path id="Ellipse 8 copy 1" fill-rule="evenodd" clip-rule="evenodd" d="M62.916 59.9511C67.9241 59.7722 71.859 60.8454 71.9485 62.4551C72.0379 64.0649 68.103 65.4958 63.1843 65.6746C58.2656 65.8535 54.2412 64.7803 54.1518 63.1706C54.0623 61.5608 57.9973 60.1299 62.916 59.9511Z" fill="#F5C7A6"/>
<path id="Shape 1 copy 7 1" fill-rule="evenodd" clip-rule="evenodd" d="M68.5529 50.7398L63.7236 49.8455C63.0976 49.7561 62.3822 49.6666 61.7562 49.6666C61.0407 49.7561 60.4147 49.8455 59.6992 49.9349L54.7805 50.8292C55.1383 50.0243 55.6749 49.2195 56.3903 48.6829C57.1058 48.0569 57.9106 47.6097 58.7155 47.252C59.6098 46.8943 60.683 46.626 61.6667 46.626C62.2033 46.626 62.7399 46.7154 63.2765 46.8048C63.7236 46.8943 64.1708 46.9837 64.6179 47.0731C66.2277 47.5203 67.8374 48.1463 69.3578 48.8617C70.8781 49.4878 72.309 50.2032 73.6504 51.0975C71.8618 50.9187 70.1626 50.9187 68.5529 50.7398ZM30.0977 49.6666C29.3822 49.6666 28.7562 49.7561 28.0408 49.8455L23.3009 50.7398C21.6912 51.0975 19.9026 51.0081 18.2034 51.187C19.5448 50.2926 20.9757 49.5772 22.4066 48.9512C23.9269 48.2357 25.5367 47.6097 27.2359 47.1626C27.683 47.0731 28.1302 46.9837 28.5773 46.8943C29.1139 46.8048 29.6505 46.7154 30.1871 46.7154C31.1708 46.7154 32.244 46.9837 33.1383 47.3414C33.9432 47.6991 34.7481 48.1463 35.4635 48.7723C36.179 49.3089 36.7155 50.0243 37.0733 50.8292L32.0651 49.9349C31.4391 49.8455 30.7237 49.7561 30.0977 49.6666Z" fill="#DDAF8F"/>
<path id="Vector_4" fill-rule="evenodd" clip-rule="evenodd" d="M34.0315 86.2437C38.0559 86.8697 42.0803 87.2274 46.1046 87.138C49.8607 87.2274 53.6168 86.9591 57.3729 86.2437C57.3729 86.2437 56.2998 92.951 45.9258 92.951C35.5518 92.951 34.1209 86.3331 34.1209 86.3331L34.0315 86.2437Z" fill="white"/>
<path id="Shape 166 copy 1" fill-rule="evenodd" clip-rule="evenodd" d="M66.0465 65.0488L65.3311 65.1382H64.5262L63.8107 65.2276H62.2904L61.4855 65.0488L60.7701 64.8699C60.5018 64.8699 60.2335 64.8699 60.0546 64.691C59.0709 64.4228 58.0872 64.065 57.1928 63.6179L60.1441 64.2439L60.8595 64.4227H61.575L62.3798 64.6016H66.0465C67.0302 64.6016 68.014 64.4228 68.9977 64.2439C68.014 64.691 67.0302 64.9593 66.0465 65.0488ZM51.7376 39.3821C49.8595 39.3821 47.9815 39.561 46.1034 39.8293L40.4693 40.3659C38.5913 40.5447 36.7132 40.5447 34.8352 40.3659L40.4693 39.9187L46.1034 39.2927C47.9815 39.1138 49.8595 39.0244 51.7376 39.0244C53.6156 39.0244 55.4937 39.2033 57.3717 39.4716L51.7376 39.3821ZM31.0791 64.8699L30.3636 65.0488L29.5587 65.1382C29.2905 65.2276 29.0222 65.1382 28.8433 65.1382L28.0384 65.2276C27.7701 65.3171 27.5018 65.2276 27.323 65.2276H26.5181L25.8027 65.0488C24.8189 64.8699 23.8352 64.6016 22.8514 64.2439C24.1035 64.4228 25.2661 64.6016 26.5181 64.691H28.7539L29.5587 64.6016L30.2742 64.5122L30.9896 64.4227L31.7051 64.2439L34.6563 63.6179C33.762 64.065 32.7783 64.4228 31.7945 64.691L31.0791 64.8699ZM29.1116 82.13C30.0953 81.1463 31.0791 80.252 32.1522 79.4471C33.2254 78.5528 34.2091 77.4796 35.1035 76.4065C36.0872 75.3333 36.7132 73.9918 37.1604 72.6504C36.8921 74.0813 36.2661 75.5122 35.3717 76.6748C34.5669 77.7479 33.5831 78.8211 32.5994 79.7154L29.7376 82.4878C29.5587 82.7561 29.2905 82.9349 29.1116 83.2032C28.9327 83.3821 28.7539 83.6504 28.575 83.9187C28.4856 84.0081 28.4856 84.187 28.3961 84.2764C28.3961 84.4552 28.3961 84.5447 28.3961 84.7235C28.3961 84.9918 28.3961 85.2601 28.575 85.5284C28.3067 85.2601 28.1279 84.9918 28.0384 84.6341C27.949 84.3658 27.949 84.0081 28.0384 83.7398C28.3067 83.1138 28.6644 82.5772 29.1116 82.13ZM45.8351 43.9431L47.9815 43.7642L50.1278 43.5854C51.5587 43.496 52.9896 43.4065 54.4205 43.4065C50.2173 44.0325 45.9246 44.3903 41.6319 44.4797L37.3392 44.2114C40.201 44.0325 42.9734 43.9431 45.8351 43.9431ZM53.8839 72.6504C54.3311 73.9918 54.9571 75.3333 55.9408 76.4065C56.8351 77.4796 57.8189 78.4634 58.892 79.3577C59.9652 80.1626 60.949 81.0569 61.8433 82.0406C62.2904 82.5772 62.6481 83.1138 62.827 83.7398C62.9164 84.0081 62.9164 84.3658 62.827 84.6341C62.7376 84.9918 62.6481 85.2601 62.3798 85.5284C62.5587 85.2601 62.5587 84.9024 62.5587 84.6341C62.5587 84.5447 62.5587 84.3658 62.5587 84.2764C62.4693 84.187 62.4693 84.0081 62.3798 83.9187C62.201 83.6504 62.0221 83.3821 61.8433 83.2032C61.6644 82.9349 61.3961 82.7561 61.2172 82.4878L58.4449 79.8048C57.4611 78.8211 56.4774 77.7479 55.6725 76.5853C54.7782 75.4227 54.1522 74.0813 53.8839 72.6504Z" fill="#EDBC9A"/>
<path id="Vector_5" fill-rule="evenodd" clip-rule="evenodd" d="M47.8012 120.227C47.8012 119.422 47.3541 118.796 46.6386 118.439C46.9964 119.78 46.3703 121.211 45.1183 121.837C44.7606 122.016 44.4029 122.105 44.0451 122.105C42.2565 113.609 30.3623 115.13 32.9557 104.04C35.4598 104.13 41.6305 107.975 45.476 103.414C49.5004 107.796 57.102 104.04 58.8907 104.04C59.4272 112 52.8988 118.349 47.8012 120.227ZM41.8094 95.5444C44.4923 96.2599 47.2647 96.2599 49.9476 95.5444L47.7118 100.731C47.7118 100.731 46.3704 98.9428 45.476 100.016C45.5655 100.731 44.0451 100.731 44.0451 100.731C44.0451 100.731 42.6143 96.2599 41.8094 95.5444Z" fill="#525150"/>
</g>
<defs>
<linearGradient id="paint0_linear_5_202" x1="45.6497" y1="46.0894" x2="45.6497" y2="78.6869" gradientUnits="userSpaceOnUse">
<stop offset="0.31887" stop-color="#F5C7A6"/>
<stop offset="1" stop-color="#FAD1B4"/>
</linearGradient>
</defs>
</svg>
